<mxfile host="65bd71144e">
    <diagram id="VhKblO8tcCa6W6QVxlKy" name="Page-1">
        <mxGraphModel dx="1118" dy="523" grid="1" gridSize="10" guides="1" tooltips="1" connect="1" arrows="1" fold="1" page="1" pageScale="1" pageWidth="850" pageHeight="1100" math="0" shadow="0">
            <root>
                <mxCell id="0"/>
                <mxCell id="1" parent="0"/>
                <mxCell id="7" value="" style="group" parent="1" vertex="1" connectable="0">
                    <mxGeometry x="120" y="140" width="80" height="100" as="geometry"/>
                </mxCell>
                <mxCell id="4" value="item" style="rounded=0;whiteSpace=wrap;html=1;verticalAlign=top;" parent="7" vertex="1">
                    <mxGeometry y="20" width="40" height="80" as="geometry"/>
                </mxCell>
                <mxCell id="5" value="next" style="rounded=0;whiteSpace=wrap;html=1;verticalAlign=top;" parent="7" vertex="1">
                    <mxGeometry x="40" y="20" width="40" height="80" as="geometry"/>
                </mxCell>
                <mxCell id="6" value="node" style="text;html=1;align=center;verticalAlign=middle;resizable=0;points=[];autosize=1;strokeColor=none;fillColor=none;" parent="7" vertex="1">
                    <mxGeometry x="20" width="40" height="20" as="geometry"/>
                </mxCell>
                <mxCell id="22" value="" style="ellipse;whiteSpace=wrap;html=1;aspect=fixed;fillColor=#e3c800;fontColor=#000000;strokeColor=#B09500;" parent="7" vertex="1">
                    <mxGeometry x="10" y="70" width="20" height="20" as="geometry"/>
                </mxCell>
                <mxCell id="25" value="" style="ellipse;whiteSpace=wrap;html=1;aspect=fixed;fillColor=#0050ef;fontColor=#ffffff;strokeColor=#001DBC;" parent="7" vertex="1">
                    <mxGeometry x="50" y="70" width="20" height="20" as="geometry"/>
                </mxCell>
                <mxCell id="8" value="" style="group" parent="1" vertex="1" connectable="0">
                    <mxGeometry x="240" y="140" width="80" height="100" as="geometry"/>
                </mxCell>
                <mxCell id="9" value="item" style="rounded=0;whiteSpace=wrap;html=1;verticalAlign=top;" parent="8" vertex="1">
                    <mxGeometry y="20" width="40" height="80" as="geometry"/>
                </mxCell>
                <mxCell id="10" value="next" style="rounded=0;whiteSpace=wrap;html=1;verticalAlign=top;" parent="8" vertex="1">
                    <mxGeometry x="40" y="20" width="40" height="80" as="geometry"/>
                </mxCell>
                <mxCell id="11" value="node" style="text;html=1;align=center;verticalAlign=middle;resizable=0;points=[];autosize=1;strokeColor=none;fillColor=none;" parent="8" vertex="1">
                    <mxGeometry x="20" width="40" height="20" as="geometry"/>
                </mxCell>
                <mxCell id="24" value="" style="ellipse;whiteSpace=wrap;html=1;aspect=fixed;fillColor=#e3c800;fontColor=#000000;strokeColor=#B09500;" parent="8" vertex="1">
                    <mxGeometry x="10" y="70" width="20" height="20" as="geometry"/>
                </mxCell>
                <mxCell id="26" value="" style="ellipse;whiteSpace=wrap;html=1;aspect=fixed;fillColor=#0050ef;fontColor=#ffffff;strokeColor=#001DBC;" parent="8" vertex="1">
                    <mxGeometry x="50" y="70" width="20" height="20" as="geometry"/>
                </mxCell>
                <mxCell id="12" value="" style="group" parent="1" vertex="1" connectable="0">
                    <mxGeometry x="360" y="140" width="80" height="100" as="geometry"/>
                </mxCell>
                <mxCell id="13" value="item" style="rounded=0;whiteSpace=wrap;html=1;verticalAlign=top;" parent="12" vertex="1">
                    <mxGeometry y="20" width="40" height="80" as="geometry"/>
                </mxCell>
                <mxCell id="14" value="next" style="rounded=0;whiteSpace=wrap;html=1;verticalAlign=top;" parent="12" vertex="1">
                    <mxGeometry x="40" y="20" width="40" height="80" as="geometry"/>
                </mxCell>
                <mxCell id="15" value="node" style="text;html=1;align=center;verticalAlign=middle;resizable=0;points=[];autosize=1;strokeColor=none;fillColor=none;" parent="12" vertex="1">
                    <mxGeometry x="20" width="40" height="20" as="geometry"/>
                </mxCell>
                <mxCell id="23" value="" style="ellipse;whiteSpace=wrap;html=1;aspect=fixed;fillColor=#e3c800;fontColor=#000000;strokeColor=#B09500;" parent="12" vertex="1">
                    <mxGeometry x="10" y="70" width="20" height="20" as="geometry"/>
                </mxCell>
                <mxCell id="27" value="" style="ellipse;whiteSpace=wrap;html=1;aspect=fixed;fillColor=#0050ef;fontColor=#ffffff;strokeColor=#001DBC;" parent="12" vertex="1">
                    <mxGeometry x="50" y="70" width="20" height="20" as="geometry"/>
                </mxCell>
                <mxCell id="16" value="null" style="rounded=0;whiteSpace=wrap;html=1;" parent="1" vertex="1">
                    <mxGeometry x="480" y="160" width="80" height="80" as="geometry"/>
                </mxCell>
                <mxCell id="17" value="" style="endArrow=classic;html=1;fillColor=#1ba1e2;strokeColor=#006EAF;" parent="1" edge="1">
                    <mxGeometry width="50" height="50" relative="1" as="geometry">
                        <mxPoint x="180" y="220" as="sourcePoint"/>
                        <mxPoint x="240" y="220" as="targetPoint"/>
                    </mxGeometry>
                </mxCell>
                <mxCell id="18" value="" style="endArrow=classic;html=1;fillColor=#1ba1e2;strokeColor=#006EAF;" parent="1" edge="1">
                    <mxGeometry width="50" height="50" relative="1" as="geometry">
                        <mxPoint x="300" y="220" as="sourcePoint"/>
                        <mxPoint x="360" y="220" as="targetPoint"/>
                    </mxGeometry>
                </mxCell>
                <mxCell id="19" value="" style="endArrow=classic;html=1;strokeColor=#006EAF;fillColor=#1ba1e2;" parent="1" edge="1">
                    <mxGeometry width="50" height="50" relative="1" as="geometry">
                        <mxPoint x="420" y="220" as="sourcePoint"/>
                        <mxPoint x="480" y="220" as="targetPoint"/>
                    </mxGeometry>
                </mxCell>
                <mxCell id="21" style="edgeStyle=none;html=1;entryX=0;entryY=0.75;entryDx=0;entryDy=0;" parent="1" source="20" edge="1">
                    <mxGeometry relative="1" as="geometry">
                        <mxPoint x="100" y="200" as="targetPoint"/>
                    </mxGeometry>
                </mxCell>
                <mxCell id="20" value="head" style="text;html=1;align=center;verticalAlign=middle;resizable=0;points=[];autosize=1;strokeColor=none;fillColor=none;" parent="1" vertex="1">
                    <mxGeometry x="20" y="190" width="40" height="20" as="geometry"/>
                </mxCell>
            </root>
        </mxGraphModel>
    </diagram>
</mxfile>